# xmcd CD database file
#
# Track frame offsets:
#	150
#	20655
#	48858
#	68995
#	89448
#	106898
#	119883
#	129940
#	148570
#	166023
#
# Disc length: 2768 seconds
#
# Revision: 0
# Processed by: cddbd v1.5.2PL0 Copyright (c) Steve Scherf et al.
# Submitted via: CDex 1.51
#
DISCID=860ace0a
DTITLE=Matt Kendrick with Fred Hersch - Other Aspects
DYEAR=1992
DGENRE=Jazz
TTITLE0=Beyond the Blue Door
TTITLE1=Seashore Fantasy
TTITLE2=Mirror, Mirror
TTITLE3=The Hat
TTITLE4=Do Nothing 'Til You Hear From Me
TTITLE5=I Got the Fear
TTITLE6=Continuum
TTITLE7=Lean
TTITLE8=Have You Met Miss Jones ?
TTITLE9=LD: 100
EXTD=YEAR: 1992
EXTT0=
EXTT1=
EXTT2=
EXTT3=
EXTT4=
EXTT5=
EXTT6=
EXTT7=
EXTT8=
EXTT9=
PLAYORDER=
